<?xml version="1.0" standalone="no"?><!DOCTYPE svg PUBLIC "-//W3C//DTD SVG 1.1//EN" "http://www.w3.org/Graphics/SVG/1.1/DTD/svg11.dtd"><svg t="1716359632862" class="icon" viewBox="0 0 1024 1024" version="1.1" xmlns="http://www.w3.org/2000/svg" p-id="3197" width="128" height="128" xmlns:xlink="http://www.w3.org/1999/xlink"><path d="M512 499.3024m-491.52 0a491.52 491.52 0 1 0 983.04 0 491.52 491.52 0 1 0-983.04 0Z" fill="#FF0036" p-id="3198"></path><path d="M512 286.72a40.96 40.96 0 0 1 40.96 40.96v245.76a40.96 40.96 0 1 1-81.92 0v-245.76a40.96 40.96 0 0 1 40.96-40.96z m0 368.64a40.96 40.96 0 1 1 0 81.92 40.96 40.96 0 0 1 0-81.92z" fill="#FFFFFF" p-id="3199"></path></svg>