<?xml version="1.0" standalone="no"?><!DOCTYPE svg PUBLIC "-//W3C//DTD SVG 1.1//EN" "http://www.w3.org/Graphics/SVG/1.1/DTD/svg11.dtd"><svg t="1716359353090" class="icon" viewBox="0 0 1024 1024" version="1.1" xmlns="http://www.w3.org/2000/svg" p-id="1587" width="128" height="128" xmlns:xlink="http://www.w3.org/1999/xlink"><path d="M928.13 225.13v622.8a83.19 83.19 0 0 1-83.2 83.2h-622.8a126 126 0 0 1-126-126v-580a125.93 125.93 0 0 1 126-126h580a126 126 0 0 1 126 126z" fill="#00DEBF" p-id="1588"></path><path d="M264.91 565.17L228.4 435h29.37l27.77 100 26.2-100h30.95l26.19 98.42L392.69 435h29.36l-33.33 130.17h-38.89l-23-84.92H326l-22.2 84.92zM464.91 565.17L428.4 435h29.37l27.78 100 26.19-100h31l26.19 98.42L592.69 435h29.37l-33.34 130.17h-38.89l-23-84.92H526l-22.2 84.92zM664.91 565.17L628.41 435h29.36l27.78 100 26.19-100h31l26.19 98.42L792.69 435h29.37l-33.34 130.17h-38.89l-23-84.92H726l-22.2 84.92zM286.22 413a15.45 15.45 0 0 1-14.37-21.08 271.34 271.34 0 0 1 252.59-172.24c58.36 0 113 15.86 158.13 45.86a247.38 247.38 0 0 1 97.52 126.32 15.44 15.44 0 1 1-29.19 10.07c-32.21-93.37-119-151.37-226.46-151.37-99.6 0-187.46 59.9-223.84 152.59a15.45 15.45 0 0 1-14.38 9.85zM526.48 783.54c-58.37 0-113-15.86-158.13-45.86a247.4 247.4 0 0 1-97.53-126.32A15.44 15.44 0 0 1 300 601.29c32.21 93.37 119 151.37 226.47 151.37 99.59 0 187.45-59.89 223.83-152.59a15.44 15.44 0 1 1 28.75 11.29 271.35 271.35 0 0 1-252.57 172.18z" fill="#FFFFFF" p-id="1589"></path></svg>